<svg width="234" height="234" viewBox="0 0 234 234" fill="none" xmlns="http://www.w3.org/2000/svg">
<g clip-path="url(#clip0_6305_75985)">
<rect width="234" height="234" rx="117" fill="#FFE872"/>
<path d="M209.558 200.84L125.298 218.902L117.201 196.213L106.702 167.207L88.6396 117.025L150.122 97.8062C152.079 104.034 209.558 200.84 209.558 200.84Z" fill="#F2A98A"/>
<path d="M117.11 196.302L117.555 197.459C128.766 187.849 136.062 174.414 139.354 159.199C143.714 139.002 138.998 121.385 134.104 102.789L88.7266 117.025L106.789 167.207L117.11 196.302Z" fill="#43375D"/>
<path d="M163.201 106.793C161.777 119.606 152.968 147.544 151.901 149.857C139.978 176.55 105.544 196.036 79.5633 174.86C79.3854 174.682 79.2074 174.593 79.0295 174.415C78.7626 174.237 78.5846 173.97 78.3176 173.703C78.1397 173.525 77.9618 173.258 77.6948 172.991C77.6059 172.902 77.6059 172.813 77.5169 172.724C77.161 172.279 76.894 171.834 76.5381 171.39C76.0932 170.767 75.7374 170.055 75.2925 169.254C75.1145 168.987 75.0256 168.72 74.8476 168.453C74.6697 168.097 74.4027 167.653 74.2248 167.208C74.0468 166.941 73.9578 166.585 73.7799 166.229C73.513 165.606 73.246 164.894 72.8901 164.182C72.6232 163.471 72.3563 162.759 72.0893 161.958C71.1106 159.378 70.2208 156.531 69.4201 153.505C69.4201 153.416 69.4201 153.416 69.4201 153.327C69.3311 152.883 69.1532 152.438 69.0642 151.993C68.9752 151.548 68.7972 151.103 68.7083 150.658C67.9075 147.455 67.1067 143.985 66.3059 140.426C65.0602 134.642 63.9926 128.592 63.0138 122.542C63.0138 122.453 63.0138 122.364 62.9248 122.186C60.2556 105.369 58.3871 88.553 57.3194 78.0539C57.2304 77.52 57.2304 76.9862 57.1414 76.5413C57.1414 76.3633 57.1414 76.1854 57.0524 76.0074C53.8493 44.7769 129.034 23.9566 150.655 47.3572C163.379 61.0595 165.781 84.3712 163.201 106.793Z" fill="#F2A98A"/>
<path d="M150.922 47.5363C138.11 33.745 106.701 35.3466 83.7453 45.4009C79.6525 45.4009 75.6485 45.7568 71.6446 46.3796C67.1958 47.0914 61.5904 47.8032 58.5652 51.5402C57.2306 53.2307 56.6077 55.2772 56.7857 57.2347C56.3408 57.5016 55.8959 57.7685 55.362 58.0354C49.7566 61.3275 45.4857 69.2464 51.625 74.407C57.2305 79.0337 67.2848 76.3645 73.4241 74.6739C73.78 74.5849 74.2249 74.407 74.5808 74.318C85.3469 75.5637 96.2019 73.6062 105.811 68.8015C110.883 69.5133 115.777 69.3354 120.67 68.3566C121.115 68.5346 121.56 68.8015 122.005 69.0684C124.14 70.4031 125.653 72.3606 126.899 74.496C127.343 74.8519 138.732 100.566 130.369 106.438C109.103 121.564 81.4319 125.746 63.1919 122.721C64.1706 128.771 65.2383 134.911 66.484 140.605C67.1958 144.164 67.9966 147.545 68.8864 150.837C68.9753 151.282 69.1533 151.727 69.2423 152.172C69.3313 152.617 69.5092 153.062 69.5982 153.507C69.5982 153.595 69.5982 153.595 69.5982 153.684C70.4879 156.71 71.3777 159.557 72.2674 162.137C72.5344 162.849 72.8013 163.65 73.0682 164.362C73.3352 165.073 73.6021 165.785 73.958 166.408C74.136 166.764 74.2249 167.031 74.4029 167.387C74.5808 167.832 74.8478 168.276 75.0257 168.632C75.2037 168.899 75.2927 169.166 75.4706 169.433C75.9155 170.145 76.2714 170.857 76.7162 171.569C76.9832 172.013 77.3391 172.458 77.695 172.903C77.784 172.992 77.7839 173.081 77.8729 173.17C78.0509 173.437 78.2288 173.615 78.4957 173.882C78.7627 174.149 78.9406 174.416 79.2075 174.594C79.3855 174.772 79.5635 174.861 79.7414 175.039C105.722 196.215 141.402 178.509 152.613 151.46C155.371 144.698 152.613 128.504 151.189 122.365C150.299 118.45 158.841 112.578 163.29 106.883C165.781 84.3723 163.379 61.0606 150.922 47.5363Z" fill="#7D6BF2"/>
<path d="M79.0818 109.5C77.5818 113.5 78.0818 122 92.5818 117.5" stroke="#43375D" stroke-width="4" stroke-linecap="round" stroke-linejoin="round"/>
<path d="M62.082 86L70.582 83.5" stroke="#7D6BF2" stroke-width="4" stroke-linecap="round" stroke-linejoin="round"/>
<path d="M98.082 80.5L106.582 78" stroke="#7D6BF2" stroke-width="4" stroke-linecap="round" stroke-linejoin="round"/>
<path d="M67.582 97.5L70.082 104.5" stroke="#43375D" stroke-width="4" stroke-linecap="round" stroke-linejoin="round"/>
<path d="M125.082 144.5C123.082 149.5 119.082 155.5 111.582 157.5" stroke="#F2A98A" stroke-width="4" stroke-linecap="round" stroke-linejoin="round"/>
<path d="M109.582 94L112.082 101" stroke="#43375D" stroke-width="4" stroke-linecap="round" stroke-linejoin="round"/>
<path d="M177.616 85.528C171.655 76.0076 154.393 73.8722 144.962 85.8839C147.275 97.8956 149.322 109.907 151.101 122.008C157.952 123.61 170.854 121.029 176.904 113.555C183.844 104.925 184.022 95.7602 177.616 85.528Z" fill="#F2A98A"/>
<path d="M155.082 107.5L163.082 94" stroke="#43375D" stroke-width="4" stroke-linecap="round" stroke-linejoin="round"/>
<path d="M269.082 199.861V319.801H-22.7591C-23.026 306.187 -22.5812 279.05 -17.7765 239.544C-11.2812 187.138 27.2453 193.366 106.612 197.014C115.954 197.459 125.83 197.815 136.33 198.082C157.595 198.615 187.224 199.06 215.162 199.327C235.271 199.594 254.49 199.772 269.082 199.861Z" fill="#C861F9"/>
<path d="M117.582 198L114.082 260.5L148.082 240" stroke="#FFE872" stroke-width="4" stroke-linecap="round" stroke-linejoin="round"/>
<path d="M135.272 197.459C132.082 197.282 120.516 197.637 117.554 197.459L132.728 246.663L167.082 197.459C154.004 197.015 145.388 197.904 135.272 197.459Z" fill="#F2A98A"/>
</g>
<defs>
<clipPath id="clip0_6305_75985">
<rect width="234" height="234" rx="117" fill="white"/>
</clipPath>
</defs>
</svg>
