<svg width="234" height="234" viewBox="0 0 234 234" fill="none" xmlns="http://www.w3.org/2000/svg">
<g clip-path="url(#clip0_525_4724)">
<rect width="234" height="234" rx="117" fill="#C861F9"/>
<path d="M0.569351 328.79C-13.0165 313.565 -21.4398 293.445 -21.4398 271.422C-21.4398 230.639 7.09057 196.381 45.131 187.681V161.036C-7.31046 170.552 -47.2529 216.229 -47.2529 271.422C-47.2529 301.33 -35.2974 328.518 -16.2771 348.638C-10.8428 341.841 -4.865 335.316 0.569351 328.79Z" fill="#FFCB3D"/>
<path d="M-46.438 285.017C-46.7097 283.386 -46.7097 281.482 -46.9814 279.851C-38.5582 278.22 -29.8632 276.86 -21.44 275.773C-21.44 277.404 -21.1683 279.307 -20.8966 280.939C-29.3198 281.754 -38.0148 283.114 -46.438 285.017ZM-45.0794 249.672L-19.8097 254.837C-19.538 253.206 -18.9945 251.575 -18.7228 249.672L-43.9926 244.506C-44.2643 246.137 -44.8077 247.768 -45.0794 249.672ZM-9.21272 187.409C-10.5713 188.497 -11.6582 189.856 -13.0168 190.944L3.82972 210.792C4.9166 209.432 6.27518 208.345 7.63377 207.257L-9.21272 187.409ZM-14.1036 306.224C-14.9188 304.593 -15.4622 302.961 -16.0057 301.33C-23.342 305.952 -30.9501 310.03 -38.8299 314.109C-38.2865 315.74 -37.4713 317.371 -36.6562 318.731C-29.0481 314.924 -21.44 310.574 -14.1036 306.224ZM17.959 169.737C16.3287 170.552 14.6984 171.096 13.3398 171.912L22.85 196.11C24.4803 195.294 25.8388 194.479 27.4691 193.663L17.959 169.737ZM-33.3956 217.589L-11.9299 232.271C-11.1147 230.639 -10.2996 229.28 -9.48443 227.649L-30.9501 212.967C-31.7653 214.598 -32.5804 215.958 -33.3956 217.589Z" fill="#43375D"/>
<path d="M233.159 328.79C246.745 313.565 255.168 293.445 255.168 271.422C255.168 230.639 226.91 196.653 188.869 187.681V161.036C241.311 170.28 281.253 216.229 281.253 271.15C281.253 301.058 269.298 328.247 250.277 348.366C244.571 341.841 238.865 335.316 233.159 328.79Z" fill="#FFCB3D"/>
<path d="M254.624 280.938C254.896 279.307 254.896 277.404 255.168 275.772C263.863 276.86 272.286 278.219 280.709 279.851C280.709 281.482 280.437 283.385 280.166 285.016C271.742 283.113 263.319 281.754 254.624 280.938ZM277.72 244.505L252.451 249.671C252.994 251.302 253.266 252.934 253.537 254.837L278.807 249.671C278.535 247.768 278.264 246.137 277.72 244.505ZM226.366 206.985C227.724 208.072 228.811 209.432 230.17 210.519L247.016 190.672C245.658 189.584 244.571 188.225 243.212 187.137L226.366 206.985ZM270.656 318.73C271.471 317.099 272.014 315.468 272.829 314.108C264.95 310.302 257.341 305.952 250.005 301.33C249.462 302.961 248.646 304.592 248.103 306.224C255.168 310.574 262.776 314.924 270.656 318.73ZM206.53 193.934C208.161 194.75 209.519 195.566 211.149 196.381L220.66 172.183C219.029 171.368 217.671 170.552 216.04 170.008L206.53 193.934ZM264.678 212.966L243.212 227.648C244.027 229.008 244.842 230.639 245.658 232.27L267.123 217.589C266.58 215.957 265.765 214.598 264.678 212.966Z" fill="#43375D"/>
<path d="M198.923 223.298L199.195 149.345H34.8057V223.298L45.1309 233.358V285.017H188.598V233.358L198.923 223.298Z" fill="#FFCB3D"/>
<path d="M78.8242 149.345L91.5949 142.548L78.8242 135.75H155.177L142.134 142.548L155.177 149.345H78.8242Z" fill="#43375D"/>
<path d="M188.054 83.0039H174.468V116.99H188.054V83.0039Z" fill="#43375D"/>
<path d="M196.478 87.6265H183.979V112.368H196.478V87.6265Z" fill="#43375D"/>
<path d="M188.325 87.6258V59.3496H191.314V94.9668L188.325 87.6258Z" fill="#43375D"/>
<path d="M189.955 63.7004C192.356 63.7004 194.302 61.7527 194.302 59.3502C194.302 56.9476 192.356 55 189.955 55C187.554 55 185.607 56.9476 185.607 59.3502C185.607 61.7527 187.554 63.7004 189.955 63.7004Z" fill="#43375D"/>
<path d="M59.2597 83.0039H45.6738V116.99H59.2597V83.0039Z" fill="#43375D"/>
<path d="M49.75 87.6265H37.251V112.368H49.75V87.6265Z" fill="#43375D"/>
<path d="M45.402 87.6258V59.3496H42.4131V94.9668L45.402 87.6258Z" fill="#43375D"/>
<path d="M44.0438 63.7004C46.4448 63.7004 48.3912 61.7527 48.3912 59.3502C48.3912 56.9476 46.4448 55 44.0438 55C41.6427 55 39.6963 56.9476 39.6963 59.3502C39.6963 61.7527 41.6427 63.7004 44.0438 63.7004Z" fill="#43375D"/>
<path d="M91.322 115.087C98.6752 115.087 104.636 109.122 104.636 101.764C104.636 94.4066 98.6752 88.4419 91.322 88.4419C83.9688 88.4419 78.0078 94.4066 78.0078 101.764C78.0078 109.122 83.9688 115.087 91.322 115.087Z" fill="#FFCB3D"/>
<path d="M141.863 115.087C149.216 115.087 155.177 109.122 155.177 101.764C155.177 94.4066 149.216 88.4419 141.863 88.4419C134.51 88.4419 128.549 94.4066 128.549 101.764C128.549 109.122 134.51 115.087 141.863 115.087Z" fill="#FFCB3D"/>
<path d="M175.012 67.5063H58.7168V135.478H175.012V67.5063Z" fill="#FFCB3D"/>
<path d="M91.0515 112.912C98.4047 112.912 104.366 106.947 104.366 99.5895C104.366 92.2318 98.4047 86.2671 91.0515 86.2671C83.6983 86.2671 77.7373 92.2318 77.7373 99.5895C77.7373 106.947 83.6983 112.912 91.0515 112.912Z" fill="white"/>
<path d="M96.2582 99.5891C96.2582 100.11 96.4341 100.584 96.7782 100.928C97.1223 101.273 97.5955 101.449 98.1168 101.449C98.6381 101.449 99.1113 101.273 99.4554 100.928C99.7995 100.584 99.9754 100.11 99.9754 99.5891C99.9754 94.6912 95.9478 90.6606 91.0522 90.6606C86.1565 90.6606 82.1289 94.6912 82.1289 99.5891C82.1289 100.11 82.3048 100.584 82.6489 100.928C82.993 101.273 83.4662 101.449 83.9875 101.449C84.5088 101.449 84.982 101.273 85.3261 100.928C85.6702 100.584 85.8461 100.11 85.8461 99.5891C85.8461 96.6177 88.3241 94.3795 91.0522 94.3795C94.021 94.3795 96.2582 96.8586 96.2582 99.5891Z" fill="#43375D" stroke="#43375D"/>
<path d="M110 114.5C116 121 120 121 126 114.5" stroke="#43375D" stroke-width="4" stroke-linecap="round" stroke-linejoin="round"/>
<path d="M141.591 112.912C148.944 112.912 154.905 106.947 154.905 99.5895C154.905 92.2318 148.944 86.2671 141.591 86.2671C134.237 86.2671 128.276 92.2318 128.276 99.5895C128.276 106.947 134.237 112.912 141.591 112.912Z" fill="white"/>
<path d="M146.797 99.5891C146.797 100.11 146.973 100.584 147.317 100.928C147.661 101.273 148.135 101.449 148.656 101.449C149.162 101.449 149.693 101.282 150.072 100.951C150.457 100.614 150.676 100.103 150.514 99.5143C150.473 94.6502 146.462 90.6606 141.591 90.6606C136.696 90.6606 132.668 94.6912 132.668 99.5891C132.668 100.11 132.844 100.584 133.188 100.928C133.532 101.273 134.005 101.449 134.527 101.449C135.048 101.449 135.521 101.273 135.865 100.928C136.209 100.584 136.385 100.11 136.385 99.5891C136.385 96.6177 138.863 94.3795 141.591 94.3795C144.56 94.3795 146.797 96.8586 146.797 99.5891Z" fill="#43375D" stroke="#43375D"/>
<path d="M168.763 181.427H64.9668V211.335H168.763V181.427Z" fill="white"/>
<path d="M87.5189 241.515C92.171 241.515 95.9422 237.741 95.9422 233.086C95.9422 228.431 92.171 224.658 87.5189 224.658C82.8669 224.658 79.0957 228.431 79.0957 233.086C79.0957 237.741 82.8669 241.515 87.5189 241.515Z" fill="#7D6BF2"/>
<path d="M115.506 241.515C120.158 241.515 123.929 237.741 123.929 233.086C123.929 228.431 120.158 224.658 115.506 224.658C110.854 224.658 107.083 228.431 107.083 233.086C107.083 237.741 110.854 241.515 115.506 241.515Z" fill="#7D6BF2"/>
<path d="M143.493 241.515C148.145 241.515 151.916 237.741 151.916 233.086C151.916 228.431 148.145 224.658 143.493 224.658C138.841 224.658 135.069 228.431 135.069 233.086C135.069 237.741 138.841 241.515 143.493 241.515Z" fill="#7D6BF2"/>
<path d="M199.195 149.072H218.759L199.195 190.671V149.072Z" fill="#43375D"/>
<path d="M34.8058 149.072H15.2422L34.8058 190.671V149.072Z" fill="#43375D"/>
</g>
<defs>
<clipPath id="clip0_525_4724">
<rect width="234" height="234" rx="117" fill="white"/>
</clipPath>
</defs>
</svg>
